<svg width="25" height="24" viewBox="0 0 25 24" fill="none" xmlns="http://www.w3.org/2000/svg">
<path d="M21.8094 0H3.52365C1.9465 0 0.666504 1.28 0.666504 2.85714V21.1429C0.666504 22.72 1.9465 24 3.52365 24H21.8094C23.3865 24 24.6665 22.72 24.6665 21.1429V2.85714C24.6665 1.28 23.3865 0 21.8094 0ZM19.5236 8.57143H18.3808C17.1579 8.57143 16.6665 8.85714 16.6665 9.71429V11.4286H19.5236L18.9522 14.2857H16.6665V22.8571H13.8094V14.2857H11.5236V11.4286H13.8094V9.71429C13.8094 7.42857 14.9522 5.71429 17.2379 5.71429C18.8951 5.71429 19.5236 6.28571 19.5236 6.28571V8.57143Z" fill="white"/>
</svg>
