<svg xmlns="http://www.w3.org/2000/svg" viewBox="0 0 100 100">
<path d="M84.23,0H15.77A15.77,15.77,0,0,0,0,15.77V84.23A15.77,15.77,0,0,0,15.77,100H84.23A15.77,15.77,0,0,0,100,84.23V15.77A15.77,15.77,0,0,0,84.23,0ZM80.94,43.3A27.26,27.26,0,0,1,72,42a28.72,28.72,0,0,1-8.14-4.1v.75c0,8.28,0,16.57,0,24.85a21.29,21.29,0,0,1-3.11,10.89,21.8,21.8,0,0,1-14,10.46,21.88,21.88,0,0,1-19.54-4.2,22.57,22.57,0,0,1-5-29.86,22.17,22.17,0,0,1,11.51-9.19,21.73,21.73,0,0,1,9.7-1.18l.93.08V52.81a30.63,30.63,0,0,0-3.56-.27,9.7,9.7,0,0,0-8.1,4.5,10.13,10.13,0,0,0,.66,12.48,9.8,9.8,0,0,0,7.8,3.65,10.2,10.2,0,0,0,10.11-7.78,12.78,12.78,0,0,0,.34-3q0-23.77,0-47.54V14H63.83a16.73,16.73,0,0,0,5,12.07,16.81,16.81,0,0,0,12.07,5Z" style="fill:#FFFFFF"/>
</svg>